HIERARCHY
ROOT Hip
{
  OFFSET 0.0 0.0 0.0
  CHANNELS 6 Xposition Yposition Zposition Xrotation Yrotation Zrotation
  JOINT LowerSpine
  {
    OFFSET 0.0 0.061367 -0.03653
    CHANNELS 3 Xrotation Yrotation Zrotation
    JOINT MiddleSpine
    {
      OFFSET 0.0 0.056002 0.002633
      CHANNELS 3 Xrotation Yrotation Zrotation
      JOINT Chest
      {
        OFFSET 0.0 0.069296 -0.013882
        CHANNELS 3 Xrotation Yrotation Zrotation
        JOINT Neck
        {
          OFFSET 0.0 0.156156 -0.002923
          CHANNELS 3 Xrotation Yrotation Zrotation
          JOINT Head
          {
            OFFSET 0.0 0.088183 0.023986
            CHANNELS 3 Xrotation Yrotation Zrotation
            End Site
            {
              OFFSET 1e-06 0.123215 0.003678
            }
          }
        }
        JOINT LClavicle
        {
          OFFSET 0.014189 0.150698 0.046467
          CHANNELS 3 Xrotation Yrotation Zrotation
          JOINT LShoulder
          {
            OFFSET 0.082893 0.021616 -0.034976
            CHANNELS 3 Xrotation Yrotation Zrotation
            JOINT LForearm
            {
              OFFSET 0.195645 -0.000695 -0.001695
              CHANNELS 3 Xrotation Yrotation Zrotation
              JOINT LHand
              {
                OFFSET 0.163209 0.000474 -0.000977
                CHANNELS 3 Xrotation Yrotation Zrotation
                End Site
                {
                  OFFSET 0.0 0.006864 0.0
                }
              }
            }
          }
        }
        JOINT RClavicle
        {
          OFFSET -0.014189 0.150698 0.046467
          CHANNELS 3 Xrotation Yrotation Zrotation
          JOINT RShoulder
          {
            OFFSET -0.082908 0.021619 -0.034982
            CHANNELS 3 Xrotation Yrotation Zrotation
            JOINT RForearm
            {
              OFFSET -0.195645 -0.000695 -0.001695
              CHANNELS 3 Xrotation Yrotation Zrotation
              JOINT RHand
              {
                OFFSET -0.163209 0.000474 -0.000977
                CHANNELS 3 Xrotation Yrotation Zrotation
                End Site
                {
                  OFFSET 0.0 0.006864 0.0
                }
              }
            }
          }
        }
      }
    }
  }
  JOINT RThigh
  {
    OFFSET -0.072558 0.02774 -0.005953
    CHANNELS 3 Xrotation Yrotation Zrotation
    JOINT RShin
    {
      OFFSET -0.005253 -0.285537 0.0
      CHANNELS 3 Xrotation Yrotation Zrotation
      JOINT RFoot
      {
        OFFSET 0.0 -0.28038 0.0
        CHANNELS 3 Xrotation Yrotation Zrotation
        JOINT RToe
        {
          OFFSET 0.0 -0.030816 0.064441
          CHANNELS 3 Xrotation Yrotation Zrotation
          End Site
          {
            OFFSET 0.0 0.0 0.043231
          }
        }
      }
    }
  }
  JOINT LThigh
  {
    OFFSET 0.072557 0.027741 -0.005953
    CHANNELS 3 Xrotation Yrotation Zrotation
    JOINT LShin
    {
      OFFSET 0.005253 -0.285539 0.0
      CHANNELS 3 Xrotation Yrotation Zrotation
      JOINT LFoot
      {
        OFFSET 0.0 -0.28038 0.0
        CHANNELS 3 Xrotation Yrotation Zrotation
        JOINT LToe
        {
          OFFSET 0.0 -0.030816 0.064441
          CHANNELS 3 Xrotation Yrotation Zrotation
          End Site
          {
            OFFSET 0.0 0.0 0.043231
          }
        }
      }
    }
  }
}
MOTION
Frames: 17
Frame Time: 0.03333333333333333
-0.105312 0.338806 -0.291362 27.705061 11.789227 -4.127877 3.738892 -0.348362 -1.216774 -1.304416 -0.255179 -1.447249 -0.316914 -1.724389 -2.630732 2.599595 0.537725 0.48578 -0.143542 0.402575 0.058813 -0.95156 0.93505 -1.853943 11.639482 -40.58374 -18.459063 -11.650517 -85.044289 -23.423693 -0.157626 -0.193669 0.164787 -0.732012 -0.07007 7.778656 -11.739559 50.662025 65.302933 2.584306 69.231163 -0.658023 0.472239 0.089936 0.099007 -105.279823 -1.630543 -3.919967 87.249367 -1.443709 5.821206 -6.420649 -2.028567 -0.64556 0.229718 -0.192958 -0.205649 -103.005943 -6.837538 19.404409 88.096939 6.890851 -20.527603 -2.714561 1.073855 -0.413737 -0.303258 0.236556 0.131334 
-0.105145 0.346218 -0.28943 28.242973 12.020319 -3.770405 3.831895 -0.338874 -1.196938 -1.351382 -0.204264 -1.501296 -0.494395 -1.706832 -2.792615 2.672048 0.564782 0.485621 -0.143105 0.399643 0.061638 -1.015355 0.903967 -1.612235 11.497523 -40.592033 -18.698734 -13.004807 -85.500458 -24.76705 -0.158091 -0.189917 0.170992 -0.799771 -0.17863 7.567313 -11.97301 50.981644 65.273468 2.950631 69.567421 -1.078816 0.485751 0.082511 0.100596 -104.657425 -1.543054 -3.979477 86.137482 -1.521555 5.853601 -6.405436 -1.913067 -0.616979 0.234238 -0.198272 -0.21707 -102.165359 -5.927668 19.362883 86.878326 7.369942 -20.653812 -2.894392 1.021944 -0.460879 -0.301378 0.235813 0.137104 
-0.103884 0.352485 -0.287879 28.331352 12.056847 -3.434821 3.948894 -0.349297 -1.179461 -1.417678 -0.104803 -1.501424 -0.745108 -1.616115 -2.869855 2.758993 0.617453 0.487304 -0.137438 0.386271 0.063568 -1.062076 0.871652 -1.364501 11.04732 -40.307343 -19.754944 -14.233948 -86.090645 -25.678982 -0.154742 -0.180066 0.166682 -0.880246 -0.346941 7.345686 -12.045809 50.89859 65.46212 3.601981 70.160439 -1.863273 0.488148 0.067714 0.09808 -103.875679 -1.506649 -3.913489 85.170288 -1.636891 5.890898 -6.38415 -1.797696 -0.592944 0.233384 -0.192969 -0.219389 -101.253075 -5.061448 19.297112 85.917732 7.725079 -20.614128 -3.103317 0.978445 -0.499762 -0.293199 0.224151 0.137038 
-0.101604 0.35976 -0.286328 28.454824 11.975878 -3.180878 4.061657 -0.376167 -1.157884 -1.505755 0.027805 -1.477262 -1.040498 -1.496824 -2.905353 2.865339 0.686391 0.501882 -0.129638 0.362488 0.067172 -1.109478 0.82452 -1.158589 10.391095 -39.867966 -21.353292 -15.991982 -86.817589 -26.915026 -0.150663 -0.169534 0.15656 -0.98569 -0.525279 7.148762 -11.94322 50.352566 65.826355 4.598939 70.900322 -2.961726 0.47738 0.052809 0.091783 -102.956757 -1.485411 -3.822469 84.003662 -1.792071 5.917824 -6.409916 -1.69672 -0.585812 0.22667 -0.188048 -0.216352 -100.282356 -4.125788 19.100859 84.918762 8.016789 -20.371904 -3.396188 0.964995 -0.519477 -0.283016 0.207688 0.13343 
-0.097994 0.36728 -0.284463 28.190714 11.720209 -2.772522 4.196125 -0.40229 -1.138193 -1.57289 0.173603 -1.458688 -1.391986 -1.35985 -2.983986 2.984535 0.756955 0.50511 -0.120436 0.33169 0.070226 -1.134127 0.778286 -0.954392 9.652082 -39.130379 -23.448864 -22.271915 -87.780357 -32.475536 -0.145632 -0.158452 0.141653 -1.07085 -0.722636 6.981464 -11.811561 49.479511 66.413498 5.663971 71.519783 -4.235744 0.455701 0.039407 0.083279 -101.513046 -1.586819 -3.849861 82.67289 -2.005503 5.957073 -6.374575 -1.611396 -0.589254 0.210391 -0.183346 -0.208887 -98.693092 -2.955383 18.907555 83.596916 8.323212 -20.050871 -3.754524 0.977443 -0.529796 -0.271823 0.187711 0.126375 
-0.093474 0.376276 -0.281719 27.793396 11.366409 -2.22783 4.348807 -0.420081 -1.118378 -1.644 0.32624 -1.472693 -1.893959 -1.259133 -3.178356 3.136903 0.824466 0.488747 -0.109335 0.2921 0.074732 -1.143302 0.742975 -0.796486 9.166852 -38.09827 -25.586439 -40.953274 -88.815346 -50.256477 -0.143328 -0.151948 0.126991 -1.116274 -0.954641 6.884065 -11.357506 48.321598 66.933609 6.862291 72.146858 -5.577045 0.421381 0.036658 0.072511 -99.452263 -1.912151 -4.009662 80.812912 -2.345674 6.016738 -6.158995 -1.55938 -0.585227 0.185266 -0.187414 -0.197976 -96.358368 -1.229261 18.641695 81.659721 8.830193 -19.713877 -4.075116 0.995659 -0.543251 -0.262059 0.165965 0.115005 
-0.08864 0.385439 -0.278165 27.152597 10.947786 -1.647575 4.536046 -0.44782 -1.105815 -1.686793 0.507976 -1.462222 -2.446117 -1.084414 -3.32288 3.316974 0.899927 0.465214 -0.09627 0.251494 0.0807 -1.164026 0.696956 -0.6601 8.600983 -37.051781 -28.122528 -99.514587 -89.387383 -107.826942 -0.142924 -0.148018 0.112435 -1.159683 -1.174172 6.789471 -10.669333 47.067093 67.30127 8.304677 72.683441 -7.118845 0.385281 0.034362 0.059617 -97.132713 -2.25378 -4.148655 78.923332 -2.765565 6.068076 -5.841598 -1.536413 -0.585815 0.156652 -0.192515 -0.181358 -93.657455 0.541898 18.330259 79.61644 9.266126 -19.33387 -4.381751 1.019247 -0.551522 -0.253636 0.142447 0.10098 
-0.083659 0.395361 -0.273318 26.136715 10.452522 -0.983475 4.798178 -0.487734 -1.124759 -1.72465 0.728541 -1.472801 -2.927139 -0.837739 -3.434418 3.577261 0.991619 0.453905 -0.086248 0.21742 0.08688 -1.218527 0.675613 -0.482025 7.800346 -35.775318 -31.319458 -159.553955 -89.05085 -166.639404 -0.150562 -0.150576 0.107558 -1.2159 -1.404527 6.721267 -10.285559 45.68425 67.786713 9.668613 72.881592 -8.864166 0.351786 0.038741 0.045931 -94.086227 -2.593233 -4.287042 76.835564 -3.197083 6.136532 -5.599548 -1.518866 -0.584508 0.127982 -0.210234 -0.16522 -90.095505 2.53383 17.998657 77.205696 9.745944 -18.900755 -4.688237 1.064331 -0.539979 -0.251222 0.127574 0.090162 
-0.077882 0.404202 -0.265433 23.898447 9.678953 -0.511231 5.202198 -0.596442 -1.225437 -1.768578 0.978056 -1.391082 -3.346373 -0.444103 -3.198686 3.946491 1.073473 0.466894 -0.074324 0.176631 0.090277 -1.333912 0.491104 -0.322214 6.616148 -34.10463 -35.349861 -174.318161 -88.077255 -179.709259 -0.158723 -0.152933 0.101403 -1.432825 -1.37775 6.797213 -9.592937 43.709953 68.302193 11.594634 73.66806 -11.231307 0.300962 0.052256 0.031128 -89.061996 -3.135017 -4.246385 73.977745 -3.649272 6.285363 -5.411001 -1.480807 -0.601188 0.084759 -0.228957 -0.142862 -84.864044 4.474936 17.884298 74.919777 9.935145 -18.544153 -4.854383 1.069201 -0.497606 -0.23941 0.105866 0.078042 
-0.072069 0.412768 -0.255969 21.478449 8.806039 -0.070287 5.623734 -0.705663 -1.312883 -1.818634 1.190023 -1.283645 -3.688951 -0.002058 -2.938287 4.29908 1.157766 0.491223 -0.064002 0.141571 0.085399 -1.445734 0.304144 -0.207619 5.505811 -32.285877 -39.178364 179.959442 -87.092758 176.076508 -0.158379 -0.148379 0.09985 -1.694078 -1.29131 6.79566 -8.976999 41.644306 68.829422 14.014821 74.75827 -14.075747 0.259233 0.062769 0.022141 -83.669037 -3.576346 -4.20458 71.108658 -4.025753 6.460056 -5.343313 -1.401953 -0.618302 0.045327 -0.236727 -0.130282 -79.225998 6.102837 17.600733 72.487663 9.984355 -18.113287 -5.034639 1.028162 -0.447239 -0.223619 0.091088 0.070583 
-0.066318 0.421373 -0.245821 19.310602 7.844555 0.210403 5.988887 -0.794952 -1.363516 -1.80213 1.410382 -1.160691 -3.971052 0.499012 -2.66404 4.566518 1.221071 0.49364 -0.053169 0.109476 0.075451 -1.541593 0.124332 -0.185647 4.59797 -30.689737 -42.473331 176.238724 -86.14827 173.785828 -0.148866 -0.135195 0.094211 -1.939919 -1.198047 6.719135 -8.44261 39.755527 69.12986 16.60684 75.878212 -17.220451 0.224597 0.066136 0.015585 -78.49617 -3.859697 -4.039005 68.362419 -4.26971 6.60713 -5.290186 -1.317396 -0.627307 0.012357 -0.227722 -0.121272 -73.779869 7.304653 17.251244 70.108597 9.874199 -17.72751 -5.189721 0.946229 -0.397431 -0.201695 0.074591 0.065326 
-0.059778 0.430832 -0.235395 16.982393 6.762476 0.448365 6.267252 -0.825687 -1.340115 -1.606208 1.662718 -1.067825 -3.601153 1.118736 -2.32573 4.769399 1.228497 0.504214 -0.048419 0.092939 0.064235 -1.643613 -0.072752 -0.424819 3.85345 -29.603659 -45.085442 174.07782 -85.038727 172.796066 -0.145359 -0.130295 0.093776 -2.144214 -1.001931 6.637457 -8.133739 38.243885 69.139503 19.167408 77.91024 -20.668844 0.202712 0.068507 0.012203 -72.563545 -4.002798 -4.057003 64.855415 -4.243747 6.678527 -5.271975 -1.233066 -0.597628 -0.004315 -0.223763 -0.11875 -67.285591 8.462368 16.601906 65.804779 9.795891 -17.456762 -5.32622 0.907413 -0.321906 -0.189305 0.065439 0.064296 
-0.054217 0.439328 -0.223124 14.5103 5.793911 0.6917 6.549809 -0.847178 -1.30102 -1.36811 1.936419 -0.964381 -3.071142 1.824009 -1.958812 4.961205 1.235076 0.524989 -0.04325 0.06676 0.052074 -1.736081 -0.288038 -0.719161 3.163681 -28.620567 -47.501652 171.854874 -84.007599 171.599274 -0.140782 -0.123694 0.090858 -2.34189 -0.825736 6.507432 -8.02254 36.861683 69.188461 23.578352 79.963593 -25.860083 0.172442 0.066562 0.007697 -66.385101 -4.124331 -4.032128 61.427486 -4.133317 6.714241 -5.269134 -1.120555 -0.561843 -0.017128 -0.217084 -0.114649 -60.495247 9.461644 15.953543 61.380062 9.604527 -17.181297 -5.441892 0.872602 -0.240037 -0.176613 0.05151 0.060861 
-0.050248 0.446032 -0.211543 12.494606 5.068406 0.89557 6.787206 -0.865518 -1.273528 -1.172505 2.152165 -0.881527 -2.540089 2.443301 -1.63959 5.115067 1.239138 0.554268 -0.039905 0.046318 0.041888 -1.814085 -0.469933 -0.947802 2.60111 -27.853958 -49.263035 169.992081 -83.187302 170.53685 -0.13845 -0.120301 0.088629 -2.504224 -0.710297 6.378837 -7.979766 35.669792 69.152298 30.250324 81.849533 -33.18314 0.146665 0.06453 0.003694 -61.293674 -4.259606 -3.975979 58.696617 -4.039141 6.757025 -5.287235 -1.001543 -0.522866 -0.023564 -0.206829 -0.110272 -54.819466 10.157238 15.413447 57.693699 9.366465 -16.915871 -5.533928 0.851078 -0.170921 -0.168857 0.039864 0.057083 
-0.047406 0.45086 -0.201404 11.008105 4.568032 0.995446 6.987814 -0.880664 -1.267295 -1.033064 2.307456 -0.775761 -2.135946 2.956941 -1.289742 5.224212 1.255093 0.592418 -0.037756 0.029203 0.034371 -1.867828 -0.606337 -1.138491 2.046547 -27.172121 -50.898117 167.793228 -82.674721 169.014038 -0.135511 -0.117928 0.086217 -2.642548 -0.609671 6.287341 -7.948872 34.336094 69.16188 42.235279 83.861122 -45.963718 0.12479 0.063405 0.000282 -57.37574 -4.533534 -3.85398 56.75 -4.095955 6.808654 -5.303516 -0.885675 -0.482003 -0.024906 -0.190069 -0.103545 -50.463898 10.49797 14.957558 54.681435 9.000325 -16.542667 -5.589578 0.853466 -0.105981 -0.16316 0.030956 0.053588 
-0.044924 0.454539 -0.19216 9.877455 4.152338 1.028089 7.152319 -0.901021 -1.259295 -0.912156 2.453812 -0.677535 -1.811087 3.443033 -0.959767 5.303818 1.267705 0.616238 -0.035385 0.019517 0.027632 -1.914318 -0.691813 -1.314295 1.493038 -26.547152 -52.373592 164.997421 -82.390808 167.030487 -0.133797 -0.11632 0.08477 -2.735971 -0.536815 6.191048 -8.04173 33.058697 69.124954 62.53965 85.240944 -67.174461 0.110403 0.058797 -0.002441 -54.150673 -4.831106 -3.634388 55.218895 -4.173545 6.829532 -5.264504 -0.784079 -0.433894 -0.025301 -0.173015 -0.096157 -46.878212 10.619987 14.490764 52.189075 8.611259 -16.108274 -5.626684 0.86998 -0.042309 -0.156024 0.023285 0.050372 
-0.042624 0.457021 -0.184581 9.046743 3.774356 1.013534 7.268736 -0.914265 -1.250059 -0.826219 2.573739 -0.599899 -1.534577 3.869899 -0.665552 5.365168 1.278262 0.627357 -0.034159 0.015733 0.022143 -1.940371 -0.722248 -1.460394 1.006318 -26.118137 -53.507771 162.12941 -82.339226 164.934311 -0.133978 -0.116552 0.084856 -2.790655 -0.492111 6.104159 -8.19134 31.940414 69.094048 86.834953 85.637268 -92.352829 0.104605 0.051452 -0.004023 -51.854046 -5.080554 -3.364262 54.25423 -4.252853 6.849273 -5.214759 -0.697677 -0.3808 -0.020972 -0.157285 -0.089726 -44.281193 10.626602 14.119698 50.433243 8.27926 -15.718834 -5.64051 0.895179 0.015949 -0.150269 0.018867 0.048553 
